<svg id="visual" viewBox="0 0 900 600" width="900" height="600" xmlns="http://www.w3.org/2000/svg" xmlns:xlink="http://www.w3.org/1999/xlink" version="1.1"><rect x="0" y="0" width="900" height="600" fill="#000000"></rect><defs><linearGradient id="grad1_0" x1="33.3%" y1="100%" x2="100%" y2="0%"><stop offset="20%" stop-color="#000000" stop-opacity="1"></stop><stop offset="80%" stop-color="#000000" stop-opacity="1"></stop></linearGradient></defs><defs><linearGradient id="grad2_0" x1="0%" y1="100%" x2="66.7%" y2="0%"><stop offset="20%" stop-color="#000000" stop-opacity="1"></stop><stop offset="80%" stop-color="#000000" stop-opacity="1"></stop></linearGradient></defs><g transform="translate(900, 600)"><path d="M-486.7 0C-481.1 -64.5 -475.4 -128.9 -449.7 -186.3C-424 -243.6 -378.3 -293.8 -328.1 -328.1C-277.9 -362.4 -223.1 -380.9 -167.6 -404.7C-112.2 -428.5 -56.1 -457.6 0 -486.7L0 0Z" fill="#FB1B1B"></path></g><g transform="translate(0, 0)"><path d="M486.7 0C485.8 68.4 484.8 136.9 449.7 186.3C414.6 235.7 345.3 266 291.3 291.3C237.4 316.6 198.7 336.9 152.7 368.6C106.7 400.4 53.3 443.6 0 486.7L0 0Z" fill="#FB1B1B"></path></g></svg>